# xmcd CD database file
#
# Track frame offsets:
#	182
#	13852
#	34732
#	55872
#	75905
#	95380
#	115962
#	139362
#	154515
#	180120
#	191720
#	207602
#	228655
#	250665
#	270122
#	288105
#	308342
#	318770
#
# Disc length: 4505 seconds
#
# Revision: 0
# Processed by: cddbd v1.5.2PL0 Copyright (c) Steve Scherf et al.
# Submitted via: CDex 1.50
#
DISCID=df119712
DTITLE=Marcel ZANINI Milt BUCKNER and friends - Blues and Bounce !
DYEAR=1994
DGENRE=Blues
TTITLE0=Histoire de Mai
TTITLE1=Redoutable II
TTITLE2=La Lanterne
TTITLE3=I cover the waterfront II
TTITLE4=Nabes Dream
TTITLE5=Ramatuelle II
TTITLE6=Vous, lui et moi
TTITLE7=Relax
TTITLE8=Crazy Sue Calls me
TTITLE9=Princesse bouton d'or
TTITLE10=Beverly young
TTITLE11=Ramatuelle I
TTITLE12=I cover the waterfront I
TTITLE13=Redoutable I
TTITLE14=Blues en soie
TTITLE15=Deed I do
TTITLE16=François
TTITLE17=Histoire de Mai II
EXTD=YEAR: 1994
EXTT0=
EXTT1=
EXTT2=
EXTT3=
EXTT4=
EXTT5=
EXTT6=
EXTT7=
EXTT8=
EXTT9=
EXTT10=
EXTT11=
EXTT12=
EXTT13=
EXTT14=
EXTT15=
EXTT16=
EXTT17=
PLAYORDER=
